<?xml version="1.0" encoding="UTF-8" standalone="no"?>
<!DOCTYPE svg PUBLIC "-//W3C//DTD SVG 1.1//EN"
 "http://www.w3.org/Graphics/SVG/1.1/DTD/svg11.dtd">
<!-- Generated by graphviz version 2.43.0 (0)
 -->
<!-- Title: G Pages: 1 -->
<svg width="479pt" height="569pt"
 viewBox="0.00 0.00 478.50 569.00" xmlns="http://www.w3.org/2000/svg" xmlns:xlink="http://www.w3.org/1999/xlink">
<g id="graph0" class="graph" transform="scale(1 1) rotate(0) translate(4 565)">
<title>G</title>
<polygon fill="white" stroke="transparent" points="-4,4 -4,-565 474.5,-565 474.5,4 -4,4"/>
<!-- mulle&#45;env init -->
<g id="node1" class="node">
<title>mulle&#45;env init</title>
<text text-anchor="middle" x="202" y="-539.3" font-family="monospace" font-size="14.00" fill="blue">mulle&#45;env init &#45;d project &#45;&#45;style minimal/tight</text>
</g>
<!-- project -->
<g id="node2" class="node">
<title>project</title>
<polygon fill="none" stroke="black" stroke-width="2" points="235.5,-474 232.5,-478 211.5,-478 208.5,-474 168.5,-474 168.5,-438 235.5,-438 235.5,-474"/>
<text text-anchor="middle" x="202" y="-452.3" font-family="Times,serif" font-size="14.00">project</text>
</g>
<!-- mulle&#45;env init&#45;&gt;project -->
<g id="edge1" class="edge">
<title>mulle&#45;env init&#45;&gt;project</title>
<path fill="none" stroke="black" stroke-dasharray="1,5" d="M202,-524.8C202,-513.16 202,-497.55 202,-484.24"/>
<polygon fill="black" stroke="black" points="205.5,-484.18 202,-474.18 198.5,-484.18 205.5,-484.18"/>
<text text-anchor="middle" x="227" y="-495.8" font-family="Times,serif" font-size="14.00"> create</text>
</g>
<!-- .mulle&#45;env -->
<g id="node3" class="node">
<title>.mulle&#45;env</title>
<polygon fill="none" stroke="black" points="247.5,-401 244.5,-405 223.5,-405 220.5,-401 156.5,-401 156.5,-365 247.5,-365 247.5,-401"/>
<text text-anchor="middle" x="202" y="-379.3" font-family="Times,serif" font-size="14.00">.mulle&#45;env</text>
</g>
<!-- project&#45;&gt;.mulle&#45;env -->
<g id="edge2" class="edge">
<title>project&#45;&gt;.mulle&#45;env</title>
<path fill="none" stroke="black" d="M202,-437.81C202,-426.65 202,-412.16 202,-401.03"/>
</g>
<!-- var -->
<g id="node4" class="node">
<title>var</title>
<polygon fill="none" stroke="black" points="141,-328 138,-332 117,-332 114,-328 87,-328 87,-292 141,-292 141,-328"/>
<text text-anchor="middle" x="114" y="-306.3" font-family="Times,serif" font-size="14.00">var</text>
</g>
<!-- .mulle&#45;env&#45;&gt;var -->
<g id="edge3" class="edge">
<title>.mulle&#45;env&#45;&gt;var</title>
<path fill="none" stroke="black" d="M180.7,-364.81C166.86,-353.65 148.9,-339.16 135.11,-328.03"/>
</g>
<!-- etc -->
<g id="node7" class="node">
<title>etc</title>
<polygon fill="none" stroke="black" points="229,-328 226,-332 205,-332 202,-328 175,-328 175,-292 229,-292 229,-328"/>
<text text-anchor="middle" x="202" y="-306.3" font-family="Times,serif" font-size="14.00">etc</text>
</g>
<!-- .mulle&#45;env&#45;&gt;etc -->
<g id="edge4" class="edge">
<title>.mulle&#45;env&#45;&gt;etc</title>
<path fill="none" stroke="black" d="M202,-364.81C202,-353.65 202,-339.16 202,-328.03"/>
</g>
<!-- share -->
<g id="node8" class="node">
<title>share</title>
<polygon fill="none" stroke="black" points="311,-328 308,-332 287,-332 284,-328 255,-328 255,-292 311,-292 311,-328"/>
<text text-anchor="middle" x="283" y="-306.3" font-family="Times,serif" font-size="14.00">share</text>
</g>
<!-- .mulle&#45;env&#45;&gt;share -->
<g id="edge5" class="edge">
<title>.mulle&#45;env&#45;&gt;share</title>
<path fill="none" stroke="black" d="M221.61,-364.81C234.34,-353.65 250.87,-339.16 263.57,-328.03"/>
</g>
<!-- &lt;hostname&gt; -->
<g id="node5" class="node">
<title>&lt;hostname&gt;</title>
<polygon fill="none" stroke="black" points="133,-255 130,-259 109,-259 106,-255 23,-255 23,-219 133,-219 133,-255"/>
<text text-anchor="middle" x="78" y="-233.3" font-family="Times,serif" font-size="14.00">&lt;hostname&gt;</text>
</g>
<!-- var&#45;&gt;&lt;hostname&gt; -->
<g id="edge6" class="edge">
<title>var&#45;&gt;&lt;hostname&gt;</title>
<path fill="none" stroke="black" d="M105.29,-291.81C99.63,-280.65 92.28,-266.16 86.63,-255.03"/>
</g>
<!-- &lt;username&gt; -->
<g id="node6" class="node">
<title>&lt;username&gt;</title>
<polygon fill="none" stroke="black" points="133.5,-182 130.5,-186 109.5,-186 106.5,-182 22.5,-182 22.5,-146 133.5,-146 133.5,-182"/>
<text text-anchor="middle" x="78" y="-160.3" font-family="Times,serif" font-size="14.00">&lt;username&gt;</text>
</g>
<!-- &lt;hostname&gt;&#45;&gt;&lt;username&gt; -->
<g id="edge7" class="edge">
<title>&lt;hostname&gt;&#45;&gt;&lt;username&gt;</title>
<path fill="none" stroke="black" d="M78,-218.81C78,-207.65 78,-193.16 78,-182.03"/>
</g>
<!-- bin -->
<g id="node9" class="node">
<title>bin</title>
<polygon fill="none" stroke="black" points="105,-109 102,-113 81,-113 78,-109 51,-109 51,-73 105,-73 105,-109"/>
<text text-anchor="middle" x="78" y="-87.3" font-family="Times,serif" font-size="14.00">bin</text>
</g>
<!-- &lt;username&gt;&#45;&gt;bin -->
<g id="edge8" class="edge">
<title>&lt;username&gt;&#45;&gt;bin</title>
<path fill="none" stroke="black" d="M78,-145.81C78,-134.65 78,-120.16 78,-109.03"/>
</g>
<!-- tool -->
<g id="node10" class="node">
<title>tool</title>
<polygon fill="none" stroke="black" points="199,-255 151,-255 151,-219 205,-219 205,-249 199,-255"/>
<polyline fill="none" stroke="black" points="199,-255 199,-249 "/>
<polyline fill="none" stroke="black" points="205,-249 199,-249 "/>
<text text-anchor="middle" x="178" y="-233.3" font-family="Times,serif" font-size="14.00">tool</text>
</g>
<!-- share&#45;&gt;tool -->
<g id="edge10" class="edge">
<title>share&#45;&gt;tool</title>
<path fill="none" stroke="black" d="M257.85,-291.99C241.35,-280.83 219.84,-266.29 203.31,-255.11"/>
</g>
<!-- environment.sh -->
<g id="node11" class="node">
<title>environment.sh</title>
<polygon fill="none" stroke="black" points="345,-255 223,-255 223,-219 351,-219 351,-249 345,-255"/>
<polyline fill="none" stroke="black" points="345,-255 345,-249 "/>
<polyline fill="none" stroke="black" points="351,-249 345,-249 "/>
<text text-anchor="middle" x="287" y="-233.3" font-family="Times,serif" font-size="14.00">environment.sh</text>
</g>
<!-- share&#45;&gt;environment.sh -->
<g id="edge9" class="edge">
<title>share&#45;&gt;environment.sh</title>
<path fill="none" stroke="black" d="M283.97,-291.81C284.6,-280.65 285.41,-266.16 286.04,-255.03"/>
</g>
<!-- optionaltool -->
<g id="node12" class="node">
<title>optionaltool</title>
<polygon fill="none" stroke="black" points="464.5,-255 369.5,-255 369.5,-219 470.5,-219 470.5,-249 464.5,-255"/>
<polyline fill="none" stroke="black" points="464.5,-255 464.5,-249 "/>
<polyline fill="none" stroke="black" points="470.5,-249 464.5,-249 "/>
<text text-anchor="middle" x="420" y="-233.3" font-family="Times,serif" font-size="14.00">optionaltool</text>
</g>
<!-- share&#45;&gt;optionaltool -->
<g id="edge11" class="edge">
<title>share&#45;&gt;optionaltool</title>
<path fill="none" stroke="black" d="M311.05,-294.46C333.13,-283.02 363.94,-267.05 387.16,-255.02"/>
</g>
<!-- ... -->
<g id="node13" class="node">
<title>...</title>
<text text-anchor="middle" x="78" y="-14.3" font-family="Times,serif" font-size="14.00">...</text>
</g>
<!-- bin&#45;&gt;... -->
<g id="edge12" class="edge">
<title>bin&#45;&gt;...</title>
<path fill="none" stroke="black" d="M78,-72.81C78,-61.65 78,-47.16 78,-36.03"/>
</g>
</g>
</svg>
